<mxfile host="65bd71144e">
    <diagram id="MwhoRUr-hGv4OWFLCyvT" name="Página-1">
        <mxGraphModel dx="1909" dy="753" grid="1" gridSize="10" guides="1" tooltips="1" connect="1" arrows="1" fold="1" page="1" pageScale="1" pageWidth="827" pageHeight="1169" math="0" shadow="0">
            <root>
                <mxCell id="0"/>
                <mxCell id="1" parent="0"/>
                <mxCell id="4" value="" style="edgeStyle=orthogonalEdgeStyle;html=1;" parent="1" source="2" target="3" edge="1">
                    <mxGeometry relative="1" as="geometry"/>
                </mxCell>
                <mxCell id="6" value="" style="edgeStyle=orthogonalEdgeStyle;html=1;" parent="1" source="2" target="5" edge="1">
                    <mxGeometry relative="1" as="geometry"/>
                </mxCell>
                <mxCell id="9" value="" style="edgeStyle=orthogonalEdgeStyle;html=1;" parent="1" source="2" target="7" edge="1">
                    <mxGeometry relative="1" as="geometry"/>
                </mxCell>
                <mxCell id="11" value="" style="edgeStyle=orthogonalEdgeStyle;html=1;" parent="1" source="2" target="10" edge="1">
                    <mxGeometry relative="1" as="geometry"/>
                </mxCell>
                <mxCell id="80" value="" style="html=1;edgeStyle=orthogonalEdgeStyle;" parent="1" source="2" target="79" edge="1">
                    <mxGeometry relative="1" as="geometry"/>
                </mxCell>
                <mxCell id="2" value="QualiCenter" style="whiteSpace=wrap;html=1;" parent="1" vertex="1">
                    <mxGeometry x="354" y="80" width="120" height="60" as="geometry"/>
                </mxCell>
                <mxCell id="13" value="" style="edgeStyle=none;html=1;" parent="1" source="3" target="12" edge="1">
                    <mxGeometry relative="1" as="geometry"/>
                </mxCell>
                <mxCell id="14" value="" style="edgeStyle=none;html=1;" parent="1" source="3" target="12" edge="1">
                    <mxGeometry relative="1" as="geometry"/>
                </mxCell>
                <mxCell id="16" value="" style="edgeStyle=none;html=1;" parent="1" source="3" target="15" edge="1">
                    <mxGeometry relative="1" as="geometry"/>
                </mxCell>
                <mxCell id="17" value="" style="edgeStyle=none;html=1;" parent="1" source="3" target="15" edge="1">
                    <mxGeometry relative="1" as="geometry"/>
                </mxCell>
                <mxCell id="18" value="" style="edgeStyle=none;html=1;" parent="1" source="3" target="15" edge="1">
                    <mxGeometry relative="1" as="geometry"/>
                </mxCell>
                <mxCell id="20" value="" style="edgeStyle=none;html=1;" parent="1" source="3" target="19" edge="1">
                    <mxGeometry relative="1" as="geometry"/>
                </mxCell>
                <mxCell id="43" value="" style="edgeStyle=none;html=1;" parent="1" source="3" target="42" edge="1">
                    <mxGeometry relative="1" as="geometry"/>
                </mxCell>
                <mxCell id="3" value="Análisis" style="whiteSpace=wrap;html=1;" parent="1" vertex="1">
                    <mxGeometry x="-181" y="170" width="90" height="40" as="geometry"/>
                </mxCell>
                <mxCell id="28" value="" style="edgeStyle=none;html=1;" parent="1" source="5" target="27" edge="1">
                    <mxGeometry relative="1" as="geometry"/>
                </mxCell>
                <mxCell id="34" value="" style="edgeStyle=none;html=1;" parent="1" source="5" target="27" edge="1">
                    <mxGeometry relative="1" as="geometry"/>
                </mxCell>
                <mxCell id="35" value="" style="edgeStyle=none;html=1;" parent="1" source="5" target="27" edge="1">
                    <mxGeometry relative="1" as="geometry"/>
                </mxCell>
                <mxCell id="37" value="" style="edgeStyle=none;html=1;" parent="1" source="5" target="36" edge="1">
                    <mxGeometry relative="1" as="geometry"/>
                </mxCell>
                <mxCell id="45" value="" style="edgeStyle=none;html=1;" parent="1" source="5" target="44" edge="1">
                    <mxGeometry relative="1" as="geometry"/>
                </mxCell>
                <mxCell id="56" value="" style="edgeStyle=none;html=1;" parent="1" source="5" target="55" edge="1">
                    <mxGeometry relative="1" as="geometry"/>
                </mxCell>
                <mxCell id="5" value="Diseño" style="whiteSpace=wrap;html=1;" parent="1" vertex="1">
                    <mxGeometry x="140" y="277.5" width="110" height="50" as="geometry"/>
                </mxCell>
                <mxCell id="58" value="" style="edgeStyle=none;html=1;" parent="1" source="7" target="57" edge="1">
                    <mxGeometry relative="1" as="geometry"/>
                </mxCell>
                <mxCell id="60" value="" style="edgeStyle=none;html=1;" parent="1" source="7" target="59" edge="1">
                    <mxGeometry relative="1" as="geometry"/>
                </mxCell>
                <mxCell id="7" value="Desarrollo" style="whiteSpace=wrap;html=1;" parent="1" vertex="1">
                    <mxGeometry x="690" y="265" width="100" height="50" as="geometry"/>
                </mxCell>
                <mxCell id="88" value="" style="edgeStyle=none;html=1;" parent="1" source="10" target="87" edge="1">
                    <mxGeometry relative="1" as="geometry"/>
                </mxCell>
                <mxCell id="89" value="" style="edgeStyle=none;html=1;" parent="1" source="10" target="87" edge="1">
                    <mxGeometry relative="1" as="geometry"/>
                </mxCell>
                <mxCell id="91" value="" style="edgeStyle=none;html=1;" parent="1" source="10" target="90" edge="1">
                    <mxGeometry relative="1" as="geometry"/>
                </mxCell>
                <mxCell id="10" value="Despliegue" style="whiteSpace=wrap;html=1;" parent="1" vertex="1">
                    <mxGeometry x="1260" y="357.5" width="100" height="50" as="geometry"/>
                </mxCell>
                <mxCell id="12" value="Entrevistas con los interesados" style="whiteSpace=wrap;html=1;" parent="1" vertex="1">
                    <mxGeometry x="-450" y="230" width="90" height="40" as="geometry"/>
                </mxCell>
                <mxCell id="15" value="Investigación de la empresa" style="whiteSpace=wrap;html=1;" parent="1" vertex="1">
                    <mxGeometry x="-400" y="300" width="90" height="40" as="geometry"/>
                </mxCell>
                <mxCell id="22" value="" style="edgeStyle=none;html=1;" parent="1" source="19" target="21" edge="1">
                    <mxGeometry relative="1" as="geometry"/>
                </mxCell>
                <mxCell id="23" value="" style="edgeStyle=none;html=1;" parent="1" source="19" target="21" edge="1">
                    <mxGeometry relative="1" as="geometry"/>
                </mxCell>
                <mxCell id="24" value="" style="edgeStyle=none;html=1;" parent="1" source="19" target="21" edge="1">
                    <mxGeometry relative="1" as="geometry"/>
                </mxCell>
                <mxCell id="26" value="" style="edgeStyle=none;html=1;" parent="1" source="19" target="25" edge="1">
                    <mxGeometry relative="1" as="geometry"/>
                </mxCell>
                <mxCell id="19" value="Planeación del proyecto" style="whiteSpace=wrap;html=1;" parent="1" vertex="1">
                    <mxGeometry x="-230" y="265" width="90" height="40" as="geometry"/>
                </mxCell>
                <mxCell id="21" value="Definir tiempo/recursos" style="whiteSpace=wrap;html=1;" parent="1" vertex="1">
                    <mxGeometry x="-290" y="335" width="90" height="40" as="geometry"/>
                </mxCell>
                <mxCell id="25" value="Documentar requerimientos" style="whiteSpace=wrap;html=1;" parent="1" vertex="1">
                    <mxGeometry x="-190" y="335" width="90" height="40" as="geometry"/>
                </mxCell>
                <mxCell id="30" value="" style="edgeStyle=none;html=1;" parent="1" source="27" target="29" edge="1">
                    <mxGeometry relative="1" as="geometry"/>
                </mxCell>
                <mxCell id="31" value="" style="edgeStyle=none;html=1;" parent="1" source="27" target="29" edge="1">
                    <mxGeometry relative="1" as="geometry"/>
                </mxCell>
                <mxCell id="33" value="" style="edgeStyle=none;html=1;" parent="1" source="27" target="32" edge="1">
                    <mxGeometry relative="1" as="geometry"/>
                </mxCell>
                <mxCell id="27" value="Aplicación" style="whiteSpace=wrap;html=1;" parent="1" vertex="1">
                    <mxGeometry x="-20" y="382.5" width="61" height="20" as="geometry"/>
                </mxCell>
                <mxCell id="29" value="Diseñar interfaces" style="whiteSpace=wrap;html=1;" parent="1" vertex="1">
                    <mxGeometry x="-110" y="437.5" width="70" height="30" as="geometry"/>
                </mxCell>
                <mxCell id="32" value="DIseño de componentes" style="whiteSpace=wrap;html=1;" parent="1" vertex="1">
                    <mxGeometry x="-19" y="447.5" width="80" height="45" as="geometry"/>
                </mxCell>
                <mxCell id="39" value="" style="edgeStyle=none;html=1;" parent="1" target="38" edge="1">
                    <mxGeometry relative="1" as="geometry">
                        <mxPoint x="170.79999999999995" y="422.5" as="sourcePoint"/>
                    </mxGeometry>
                </mxCell>
                <mxCell id="41" value="" style="edgeStyle=none;html=1;" parent="1" target="40" edge="1">
                    <mxGeometry relative="1" as="geometry">
                        <mxPoint x="147.0400000000002" y="422.5" as="sourcePoint"/>
                    </mxGeometry>
                </mxCell>
                <mxCell id="36" value="Base de datos" style="whiteSpace=wrap;html=1;" parent="1" vertex="1">
                    <mxGeometry x="130" y="392.5" width="70" height="30" as="geometry"/>
                </mxCell>
                <mxCell id="38" value="¿Qué información guardar?" style="whiteSpace=wrap;html=1;" parent="1" vertex="1">
                    <mxGeometry x="157" y="452.5" width="110" height="35" as="geometry"/>
                </mxCell>
                <mxCell id="40" value="Tablas" style="whiteSpace=wrap;html=1;" parent="1" vertex="1">
                    <mxGeometry x="78" y="455" width="70" height="30" as="geometry"/>
                </mxCell>
                <mxCell id="42" value="Lógica de negocios" style="whiteSpace=wrap;html=1;" parent="1" vertex="1">
                    <mxGeometry x="-120" y="265" width="71" height="30" as="geometry"/>
                </mxCell>
                <mxCell id="47" value="" style="edgeStyle=none;html=1;" parent="1" source="44" target="46" edge="1">
                    <mxGeometry relative="1" as="geometry"/>
                </mxCell>
                <mxCell id="50" value="" style="edgeStyle=none;html=1;" parent="1" source="44" target="49" edge="1">
                    <mxGeometry relative="1" as="geometry"/>
                </mxCell>
                <mxCell id="54" value="" style="edgeStyle=none;html=1;" parent="1" source="44" target="53" edge="1">
                    <mxGeometry relative="1" as="geometry"/>
                </mxCell>
                <mxCell id="44" value="Arquitectura" style="whiteSpace=wrap;html=1;" parent="1" vertex="1">
                    <mxGeometry x="360" y="372.5" width="76" height="25" as="geometry"/>
                </mxCell>
                <mxCell id="46" value="Decidir tecnologías y servicios" style="whiteSpace=wrap;html=1;" parent="1" vertex="1">
                    <mxGeometry x="479" y="437.5" width="101" height="40" as="geometry"/>
                </mxCell>
                <mxCell id="49" value="Seguridad" style="whiteSpace=wrap;html=1;" parent="1" vertex="1">
                    <mxGeometry x="380" y="442.5" width="80" height="30" as="geometry"/>
                </mxCell>
                <mxCell id="53" value="Interconexión de sistemas" style="whiteSpace=wrap;html=1;" parent="1" vertex="1">
                    <mxGeometry x="284" y="447.5" width="76" height="30" as="geometry"/>
                </mxCell>
                <mxCell id="55" value="Pruebas" style="whiteSpace=wrap;html=1;" parent="1" vertex="1">
                    <mxGeometry x="250" y="382.5" width="50" height="20" as="geometry"/>
                </mxCell>
                <mxCell id="62" value="" style="edgeStyle=none;html=1;" parent="1" source="57" target="61" edge="1">
                    <mxGeometry relative="1" as="geometry"/>
                </mxCell>
                <mxCell id="63" value="" style="edgeStyle=none;html=1;" parent="1" source="57" target="61" edge="1">
                    <mxGeometry relative="1" as="geometry"/>
                </mxCell>
                <mxCell id="65" value="" style="edgeStyle=none;html=1;" parent="1" source="57" target="64" edge="1">
                    <mxGeometry relative="1" as="geometry"/>
                </mxCell>
                <mxCell id="68" value="" style="edgeStyle=none;html=1;" parent="1" source="57" target="67" edge="1">
                    <mxGeometry relative="1" as="geometry"/>
                </mxCell>
                <mxCell id="57" value="Aplicación" style="whiteSpace=wrap;html=1;" parent="1" vertex="1">
                    <mxGeometry x="610" y="325" width="60" height="30" as="geometry"/>
                </mxCell>
                <mxCell id="70" value="" style="edgeStyle=none;html=1;" parent="1" source="59" target="69" edge="1">
                    <mxGeometry relative="1" as="geometry"/>
                </mxCell>
                <mxCell id="72" value="" style="edgeStyle=none;html=1;" parent="1" source="59" target="71" edge="1">
                    <mxGeometry relative="1" as="geometry"/>
                </mxCell>
                <mxCell id="74" value="" style="edgeStyle=none;html=1;" parent="1" source="59" target="73" edge="1">
                    <mxGeometry relative="1" as="geometry"/>
                </mxCell>
                <mxCell id="78" value="" style="edgeStyle=none;html=1;" parent="1" source="59" target="77" edge="1">
                    <mxGeometry relative="1" as="geometry"/>
                </mxCell>
                <mxCell id="59" value="Servidor" style="whiteSpace=wrap;html=1;" parent="1" vertex="1">
                    <mxGeometry x="898" y="315" width="60" height="20" as="geometry"/>
                </mxCell>
                <mxCell id="61" value="Interfaces" style="whiteSpace=wrap;html=1;" parent="1" vertex="1">
                    <mxGeometry x="520" y="370" width="60" height="30" as="geometry"/>
                </mxCell>
                <mxCell id="64" value="Conexión con el servidor" style="whiteSpace=wrap;html=1;" parent="1" vertex="1">
                    <mxGeometry x="590" y="380" width="80" height="30" as="geometry"/>
                </mxCell>
                <mxCell id="67" value="Funcionalidad" style="whiteSpace=wrap;html=1;" parent="1" vertex="1">
                    <mxGeometry x="690" y="380" width="80" height="25" as="geometry"/>
                </mxCell>
                <mxCell id="69" value="Servicios" style="whiteSpace=wrap;html=1;" parent="1" vertex="1">
                    <mxGeometry x="850" y="385" width="60" height="20" as="geometry"/>
                </mxCell>
                <mxCell id="71" value="BD" style="whiteSpace=wrap;html=1;" parent="1" vertex="1">
                    <mxGeometry x="921" y="385" width="60" height="20" as="geometry"/>
                </mxCell>
                <mxCell id="73" value="API" style="whiteSpace=wrap;html=1;" parent="1" vertex="1">
                    <mxGeometry x="971" y="355" width="60" height="20" as="geometry"/>
                </mxCell>
                <mxCell id="77" value="Configuraciones" style="whiteSpace=wrap;html=1;" parent="1" vertex="1">
                    <mxGeometry x="801" y="350" width="90" height="20" as="geometry"/>
                </mxCell>
                <mxCell id="82" value="" style="edgeStyle=none;html=1;" parent="1" source="79" target="81" edge="1">
                    <mxGeometry relative="1" as="geometry"/>
                </mxCell>
                <mxCell id="84" value="" style="edgeStyle=none;html=1;" parent="1" source="79" target="83" edge="1">
                    <mxGeometry relative="1" as="geometry"/>
                </mxCell>
                <mxCell id="86" value="" style="edgeStyle=none;html=1;entryX=0.5;entryY=0;entryDx=0;entryDy=0;" parent="1" source="79" target="85" edge="1">
                    <mxGeometry relative="1" as="geometry">
                        <mxPoint x="1216.428571428571" y="275" as="targetPoint"/>
                    </mxGeometry>
                </mxCell>
                <mxCell id="79" value="Pruebas" style="whiteSpace=wrap;html=1;" parent="1" vertex="1">
                    <mxGeometry x="1080" y="195" width="100" height="50" as="geometry"/>
                </mxCell>
                <mxCell id="81" value="Unitarias" style="whiteSpace=wrap;html=1;" parent="1" vertex="1">
                    <mxGeometry x="990" y="270" width="70" height="40" as="geometry"/>
                </mxCell>
                <mxCell id="83" value="Integración" style="whiteSpace=wrap;html=1;" parent="1" vertex="1">
                    <mxGeometry x="1090" y="285" width="80" height="40" as="geometry"/>
                </mxCell>
                <mxCell id="85" value="Calidad" style="whiteSpace=wrap;html=1;" parent="1" vertex="1">
                    <mxGeometry x="1190" y="280" width="80" height="30" as="geometry"/>
                </mxCell>
                <mxCell id="87" value="Presentación" style="whiteSpace=wrap;html=1;" parent="1" vertex="1">
                    <mxGeometry x="1180" y="422.5" width="100" height="50" as="geometry"/>
                </mxCell>
                <mxCell id="90" value="Documentación final" style="whiteSpace=wrap;html=1;" parent="1" vertex="1">
                    <mxGeometry x="1310" y="422.5" width="100" height="50" as="geometry"/>
                </mxCell>
            </root>
        </mxGraphModel>
    </diagram>
</mxfile>